<mxfile host="app.diagrams.net" modified="2021-06-21T07:52:48.341Z" agent="5.0 (Macintosh; Intel Mac OS X 10_15_7) AppleWebKit/537.36 (KHTML, like Gecko) Chrome/91.0.4472.106 Safari/537.36" etag="oZV09E4RBLntWwLEvHsX" version="14.8.0" type="github">
  <diagram id="nTxIENWew05StI4t0a14" name="第 1 页">
    <mxGraphModel dx="2039" dy="808" grid="0" gridSize="10" guides="1" tooltips="1" connect="1" arrows="1" fold="1" page="0" pageScale="1" pageWidth="827" pageHeight="1169" math="0" shadow="0">
      <root>
        <mxCell id="0" />
        <mxCell id="1" parent="0" />
        <mxCell id="MbS8dL7SpkD70J1krhoe-1" value="&lt;h1&gt;&lt;font style=&quot;font-size: 20px&quot; face=&quot;Lucida Console&quot;&gt;开启Ribbon&lt;/font&gt;&lt;/h1&gt;" style="text;html=1;strokeColor=none;fillColor=none;align=center;verticalAlign=middle;whiteSpace=wrap;rounded=0;" vertex="1" parent="1">
          <mxGeometry x="-330" y="100" width="190" height="20" as="geometry" />
        </mxCell>
        <mxCell id="MbS8dL7SpkD70J1krhoe-2" value="" style="shape=image;verticalLabelPosition=bottom;labelBackgroundColor=#ffffff;verticalAlign=top;aspect=fixed;imageAspect=0;image=data:image/png,iVBORw0KGgoAAAANSUhEUgAAAvAAAAEACAYAAADV3EL+AAAgAElEQVR4Ae2d+XfVRpr3+9/o94fMe96ZM5Oe6Z43PelJT6a7J+ksna2zdhKSdFZIQvYAWchG2AIBAwFjDDbghcU2xjbGgFlsgzEYY1Zj9jXsW/Zk0nPO+1O95ytS4lFdSVdXV9dXsr8/6EhXqipV1fOR7rdKT1X97P/97ZDixjogA2SADJABMkAGyAAZIAPJYOBnNFQyDEU70U5kgAyQATJABsgAGSADYIACnl8g+AWGDJABMkAGyAAZIANkIEEMUMAnyFhsdbPVTQbIABkgA2SADJABMkABTwHPFjcZIANkgAyQATJABshAghiggE+QsdjiZoubDJABMkAGyAAZIANkgAKeAp4tbjJABsgAGSADZIAMkIEEMUABnyBjscXNFjcZIANkgAyQATJABsgABTwFPFvcZIAMkAEyQAbIABkgAwligAI+QcZii5stbjJABsgAGSADZIAMkAEKeAp4trjJABkgA2SADJABMkAGEsQABXyCjMUWN1vcZIAMkAEyQAbIABkgAxTwFPBscZMBMkAGyAAZIANkgAwkiAEK+AQZiy1utrjJABkgA2SADJABMkAGKOAp4NniJgNkgAyQATJABsgAGUgQAxTwCTIWW9xscZMBMkAGyAAZIANkgAxQwFPAs8VNBsgAGSADZIAMkAEykCAGYiPgL57bqPb3Vqstm6ertpYxqmvzDLW/t0pdONvuC9RXl7da4RDW3A4fqFeXL2z2jc9WLFuxZIAMkAEyQAbIABkgA0liIO8C/vzp9aqx4WVVMud/uW5zS/9Jta0brSDU3Sq2e0uRazyZXnnZH9SG1vHqy0tbXNNwS5fn+CCTATJABsgAGSADZIAMxJGBvAr43TvKVHnZ71IE+NzSf045t3DB3erMyXUpAjyIgNdivrLiFtc04mgY5okvDDJABsgAGSADZIAMkAE3BvIm4E+dWKPmzb3OFupVix9SPTvL1dlTrZZIP3e6Te3oLlEQ3VqAo6feLIQU8NVVD1vuN3DBwbZqxQi1aOG9dnykU7/0OfXjd70p6Zjp8jcfGDJABsgAGSADZIAMkIE4MpA3Ad/U+KotrFetGK6++WKbq6i+fH6TWlh5px0WvfayIqWAX73qXcc1hPvvb3ss9xndCMD+0L7alHAyTR7zYSUDZIAMkAEyQAbIABmIKwN5EfCH9i+1BXlF+U1pfdN3bZ9nhzdFejoBj4r/nx/2qdqaJ+w0ujoLAwt4+Ohjy9aAaIhcTDMgN8g90CA5f2a9unSuI+s8Bbkfw/DlRQbIABkgA2SADJCBeDGQFwHf2THNFtM4TgfF91/vVKUlf2/FWVr7tCN8EAGP9FvXfmzfE8d+99zbs1DV1T6jyubfaMfBMc7hml9ceQ0uQXW1zxrp/FYtqX5MdXfN8nXlQaMF7j/YMIj35PFm1dT4msKgXv01Ae5Fa5pHqi8udAbOk8wfj+P1MNIetAcZIANkgAyQATIQhIG8CPh1qz+wReiRgw2BxCcGsUK4YtCrLFhQAb961Tv2PTvaJzvS0Omhp7555dt2OC2UzT3CIKyOZ+6//XK7Wlb/Ytp0aqoHqS8vuotvTKep74u0FlTeYf/W5/V+QcXtHJyboLlbTV74my9rMkAGyAAZIANkIBMG8iLgG+qG2GLUnKf93KlWBTcZiFv0Pq9e+Y41P3z90sFWHMxQIwsYRMDDBQZTSWrB69WLLkUzwqKnvGXtR9aGYx0fe4SV+ZDHZiMAvea1S/5qTZdZWXGbI52VTcNc0zHzgntCxKM+1q5+X1UtetCRDnrnZR54zBcBGSADZIAMkAEyQAb6JwN5EfDVi/9iic/5837jEJ2YeUYKbS2Y58/7N8sVBb8zEfAYGLu3Z5HS90P8mqpHXXvP4VOO/Oh7bmj7xBEOPe44p68jrJsf+tmTLQ43l40bPnXMYf/dVztU67rRdjpID+4x5gNmCvjGhpccYwV++Ga3JeR1fqx0jqWmY6bL3/3zQaZdaVcyQAbIABkgAwOHgbwKeNMdRrrWwOcc/t1rmt9zzBXvJ+Dnzf2V1QBAIwCb9pvXIhe9+qdPrEkRywB+355FtqhG77bbVJM4J3u+Ecd8WLCarPZdh+g2r+O3mQ783c1wUsBjuk18mTDDoIEie/TNGXrM8Pw9cB5s2pq2JgNkgAyQATLQfxmIlYDHPO5abB8UUz3KWWv8BLyO67Xf3l2SIoI13J2bPrPvDRcVfd7c45pOH3HM60F/N698y07HzSdfCni433ilu3zZK3Y6mzZO8QznFZ/n++/DTdvStmSADJABMkAG+icDsRLwZfN/a4lR9L5jukQNHXqs9YqtfgK+ovxmtXTJU/a2aME9Kb3wXjPQYOEnLcw7Nkyy763zoPe4psMhjj7vt4f7DcogN/m1AW42Znwp4L385BEnXTpmuvzdPx9k2pV2JQNkgAyQATIwcBiIlYCHOIc4dutxxjlc8xPw5hzxABnzr8MVR4tu7Ht2VqQIZingr9znnyxfdgxAlZt0y/ES8BDs27qKFQbewsWldM7fOe4v84LjdAIeC115PZQU8APnYfVigOfJABkgA2SADJCBgcVAvxfwGugVTW/aIhrCWp/Xe1PAmyLb7bebgIdfOuaqdwvvdY4CfmA9dJo57ml3MkAGyAAZIANkIAwDA0bAHzvcaItquOiYlSUFPAR+1+YZabejLnPYr1vzoX0fCPbFC+9TG9rGp6SFBZ60oKeA58Nr8sjfZIIMkAEyQAbIABnwYiBWAh6zyEDUYqYXM8N6KshMXWh0Opi+UQtm7M0FlKSAdxtUqtPx28PHXfvx4x4Q7l7h07m+SB94utDwAfbiiOfJBhkgA2SADJCBgcdArAT8wso7bZEtp0386vJWhbngIYrDCvhTJ9bYacOnHYJeAo8ZXLTARy+6vBb0+PiRJjsN+MqfObnOMx0syKTvxx74gffgBWWK4cgGGSADZIAMkAEyYDIQKwHfUPe8LWohcE8ea1bHDy9X0n89rIDH7DNaMGMxJ7Mi9uyutK/X1jyRcl2HR8840sK2b89iR7gjBxvsNMxFqnR8vZfzyVPA88HUXHBPFsgAGSADZIAMkIF0DORVwKNXXWYQs8NokW3uIdxxLlMB/9WlLrW+dZxjOsmWtR857os8oMcfPfP6vphFRuYNx1LkI1zPznJHmK+/6Hbcx2veeeRH3wd7Cng+qCZr/E0myAAZIANkgAyQAS8G8iLgMUhUC9hzp9scIhjzrEshjSkYVyx/wxLhiOMn4NHrjd5zvWEeeJkW4i+ouF1dvrDZcU9dOaawbmp8TW3umKo2rp+oljUMtd14kA5WW4XPu46r93JwKu7dUDdEbdk03Zq6cmvnTLWk+jG77LoOKOD5gGp+uCcLZIAMkAEyQAbIQDoG8iLgMShTi9f9vdUpIvji2XbLPQU93DhGIeCz/uWlLdYmC9W9pchOS6fptYfoPry/LuV+Or1vv9weaArIivKbLNceHU/uT51YrdCQ8MoDzsPXX85NTwHPB1UyxGPyQAbIABkgA2SADPgxkBcBv1kMGIWQ9ctgumt+Ah4DSRcuuFstq39RbWovSBm46pY2etXRY45VXU0RDpeflrWj1NlTrb55Pnm8WaH33lzACflZvuwVdeLoSvuLAu6B+jDzImehcVugSoeXvv1u6ehw3PNFQAbIABkgA2SADJCB/sFAXgQ83Gb0iqbYHzlQnyJg4wDYhTMb1IG9NdaGnvUfvtmdUT4xe87RQ8vUnl2VVhkvnevIKH4c6oB56B8POu1IO5IBMkAGyAAZ6D8M5EXAAyDpRlNZcZva27OQ4vZv/QcsviRoSzJABsgAGSADZIAM5IaBvAl4DCSV875fGaz6uuVOAjGPXnls//PDPgp7CnsyQAbIABkgA2SADJABMvATA3kT8GiRwVe8uurhFF9z6XtuLrjEllxuWnKsV9YrGSADZIAMkAEyQAaSwUBeBTwg+eaLbdY86JjyUQp3fUwBnwyQ+MDTTmSADJABMkAGyAAZ6BsG8i7gtaHhKnP8SJPq3b1AYWaZrs5Ca3Oba13H4b5vIGE9s57JABkgA2SADJABMhAfBmIj4AlFfKCgLWgLMkAGyAAZIANkgAzElwEKeA4I4YAQMkAGyAAZIANkgAyQgQQxQAGfIGOxJRzfljBtQ9uQATJABsgAGSADfcUABTwFPFvcZIAMkAEyQAbIABkgAwligAI+Qcbqq1Yd78MeBDJABsgAGSADZIAMxJcBCngKeLa4yQAZIANkgAyQATJABhLEAAV8gozFlnB8W8K0DW1DBsgAGSADZIAM9BUDFPAU8GxxkwEyQAbIABkgA2SADCSIAQr4BBmrr1p1vA97EMgAGSADZIAMkAEyEF8GKOAp4NniJgNkgAyQATJABsgAGUgQAxTwCTIWW8LxbQnTNrQNGSADZIAMkAEy0FcMUMBTwLPFTQbIABkgA2SADJABMpAgBijgE2SsvmrV8T7sQSADZIAMkAEyQAbIQHwZoICngGeLmwyQATJABsgAGSADZCBBDFDAJ8hYbAnHtyVM29A2ZIAMkAEyQAbIQF8xQAFPAc8WNxkgA2SADJABMkAGyECCGKCAT5Cx+qpVx/uwB4EMkAEyQAbIABkgA/FlgAKeAp4tbjJABsgAGSADZIAMkIEEMUABnyBjsSUc35YwbUPbkAEyQAbIABkgA33FQGwE/MVzG9X+3mq1ZfN01dYyRnVtnqH291apC2fb07YIjx5aZoUNGr6vKrcv7nPqxBq77GdPtabU1VeXt9rXUT9yO3ygXl2+sDklTq7yDfvK+5vH//PDvj7LS67KmLR00/GTtPIwv/zzJANkgAyQgYHAQN4F/PnT61Vjw8uqZM7/ct3mlv6Tals3WkGIehmkoe55O+6u7fM8w3nFT/L5VSuG22VH48csS/eWIvu6Vx2Xl/1BbWgdr768tCUlvpleNr/nlv6zb16++2pHTu+fTd77a9x0/PTXcrNc/IMnA2SADJCBJDOQVwG/e0eZKi/7XYqocxN6Cxfcrc6cXOcq8CjgrzR+wgp4LewrK27xrOMoIHezq7439hTwff8ypYDv+zqP4lliGrQbGSADZGBgM5A3AY9P9/PmXmeL96rFD6meneVKu4GcO92mdnSXKIhKLfLQU+8GLAV8MAFfXfWw5Z4EFyVsq1aMUIsW3mvXL+q5fulz6sfvel3r2a3uMznXuvZj1bL2I3tbt/oDx70p4Pv+ZUQB3/d1nskzw7C0DxkgA2SADLgxkDcB39T4qi3eICK++WKbq2i8fH6TWlh5px0WvfZmQSjggwn41aveTam7//62x3Kf0Y0k7A/tq00JZ9Z5FL8h2OV9KeD7/iVFAd/3dR7Fs8M0aDcyQAbIwMBmIC8C/tD+pbZwqyi/Ka3vNfzatdBzE6G5FPDw0cfXgGwfFDRELgYYkOt3HwzoxRcKOdgznQCTPvBudYf7Ib3amifsOu7qLAxc3mzKlQsBn01+ZN2jYXP+zHp16VxH4LqQ8fUxbA7XL2kzfS2TPTjElkkcM2wYfsw0+Htg/2HQ/rQ/GSADZCAeDORFwHd2TLPFIo7TwfD91ztVacnfW3GW1j6dEj5qAd+zs0ItXfKUKpt/o51PHOMcrqXLr74Ol6C62meNdH6rllQ/prq7ZgVyVfnyYqeC8JauRHA9WtM80hJ0zSvfsvOYzgfeS8Ajv3Bv0Y0kHOsyuO2jKBfSjUrAZ5MfNA7hRoQNg6VPHm9WTY2vKQye1vWBukd9f3Gh07dedF3t7Vlk2R2Dg3UasBlcmDC7EhoHOqzffm/PQlVX+4zBz43WOVzzi6uvZcuPTof7eLywaQfagQyQATJABsBAXgS89H0+crAhkBDBIFaIIQx6NeGNSsBDWK1Y/oYturT4Mvcrmt70FWHffrldLat/MW06NdWDFASWWR79Gz23ixbc45lO9eK/OPKbjYBfveod+z4d7ZNd8xRVuXT5shXwUeQHdabtC5stqLzD/q3P6/2Citt9B/li7ADGFejwXnvYze9rDHrrm1e+nTYdhPHr2Y+CH20r7vmHQQbIABkgA2QgPgzkRcA31A2xxYk5D/m5U61WjzPELXpFV698x5ofvn7pYCsOZjIxAYpKwG/aOMXOF8QX3Hsg6rDhWAoyhDXzoX+b4gu9ubVL/mpNl1lZcZsjnZVNwzzTke4xuDfEJcKjh9jMD66HFfBwzZC9xV69u1GVS9dTtgI+ivxIAa/ti3oGd2tXv6+qFj3osBfqXuff3MsvS0gLX23A+vJlrzjGceBaY8NLnumYecIXGz34F8c6n9i72VznKwp+dFrcx+elTVvQFmSADJABMpAXAY8eSIiP+fN+4xAx8DWXQlILlfnz/s1yScDvXAl49IjKWXEglOW86DjGOZ0nhHVbZOrsyRaH+8XGDZ865rCHaG1dN9pOB+nBbcN8GE8ea1alc/7ODgexih5nHQ6+2bIhhHTcxJyfDzwGDsPdQ9sDadRUPeraqxtVuXT+sc9GwEeVH1MsQ1hLu//wzW5LyGu7W/Y6lmovLEQGTnU4pCN72fF1Byzo69i7NZRgVzwXOtyGtk8c9kCPO87p6wjr5qcfFT/SXjzmHwYZIANkgAyQgXgwkFcBb7rDSNca9F7C73hN83uOueJzJeAhprQogs/zV5e6bLGsYcU56YvuJsCw2qj2qfbqZYWrhezZdVt8ateO+c78uCxkBRcJ2ehIJ+Dnzf2V1UBCIwmbHlegy42vHqdPrEkpN8ofVbl0XWKfjYCPKj9SwKMu8QVI5hHHaOjILyduMyHt27PIthfqFoNpzXTwW7pWta+fkBJGpgNG3Kb0NPlBHPNeUfFjpsvf8Xhx0w60AxkgA2RgYDMQKwGPQX5aTB4UUxnKWWtyJeA3d0y17w0fd68HA9d0HoMMwPVKRw4+dfM5xzl9H7/8yNlj0gl4nZ7Xfnt3iWe5vcphnk9XLhk+GwEv0/E7TpcfKeDh5uSVFtxgdL25uU9J9xmMo/BKZ2vnTKsRiIag22Dhzk2f2feBC49XOrim84M4Zrio+DHT5e+B/YdB+9P+ZIAMkIF4MBArAV82/7eWKEHvu5ypAz2OesXWXAl4LGykBRGOvQANGk7Gh9sDyiA3+bUBrhUyPI6D3kc2KNIJ+Irym62ZdDCbDjYMkDV74d1EpZk3/TtMuXRc7KMW8GHyIwU8XKRk/uRxVPaSabodS7t3bJjkmR9c8+NVpoNjt3vhXDp+vOLxfDxe4LQD7UAGyAAZGJgMxErAQ5xDlLj1hOIcrvWFgF/fOs5T8OCan3DCgwQhua2rWGHgLVwvpC+7jiv36QS8X37kQMV0At5tGkm4esBVSebHa6rMKMolXzTZCvgo8iMFPOpS5k8eZyLg/ewl03Q7lsIbNsEAaLdNNrzcBLpMxy8/6fhxyyPPDcw/C9qddicDZIAMxIcBCvi/XTFGUMGTTsDDXxpz1UtBnO44nwJeP4yyJxYND31e76Mql04P+2wEfFT5ibuAT8cOrlPAx+eFKvnmMe1CBsgAGSADuWKAAj5iAb9uzYcO8b544X1qQ9t4awEfLOKjNyzwpMVZHAT8scONdn7gwmQCF1W5ZLrZCPio8hNnAY+GlObFb3/UZS2FoA1S9sDzz0U+kzwmD2SADJCBZDAQKwGPWVIgajH7hgmQnuqwT1xoWsam3F/nZ33LWFvomj2f8HHXfvwoB4S7jmfuM3LJ8MmPnNoyjAuNzpcppuUCU1GWS98Pe/Oe+C2vex1HmZ+cCHgfe3mVSZ+XwtttcLMOl24v0wGzXuHT8eMVj+eT8YKnnWgnMkAGyED/ZCBWAn5h5Z22OJbT+X11eas9x3auBLxcxMnPF1r2WJoC6/iRJjv/8FHGNI9eDw4WCvLrgd+4fqJ93S8/dbXP2OGyEfCnTqyx04HPtRTTUZZL1kdYAR9lfqIS8JIfv8GwmIISX1+wuQ1SlengK4Osr0yOo+Ink3sybP/8k6BdaVcyQAbIQPwYiJWAlyuqQuBiMZrjh5c7ZsrIlYDfs6vCFrCYnQUL+JjA4hyuaeGNODLMkYMN9jVzkSoZDsdyHng3F5od3SV2WrinnJVHp4UBqLLHPxsBj9lndLmwmJO+B/ZRlkumi550NBb0fQ8fqHfcV4aVx1HmJyoBv2dXpV0ONETlolsy77LHG6uryms43rP7ajqYItS8rn8j37AZtn17FqeEi4offT/u4/fypk1oEzJABsjAwGUgrwIeK1dK+DD7iRZz5h7CHedyJeCxsqec2QNuB5jlROcPx9J9BmERR1/H/usvuh1peM2rLgfCokxuAv7ooWWOumhvcy76g8aEnOMc6YQR8FicCvmRZTeFZZTlkvWF46rFD9nlxPzpWNHUDGP+jjI/UQn4s6daHY0RuEiZjUAs2CVnJOrZWZ5SVnx5ko0azGZkll+KfNjdLZ2o+DHvzd8D98+CtqftyQAZIAPxYSAvAh6D8yA8sJ073eYQKHArkAIGggfCTovedAIevZ/oQfbdqgepE0dXOu4LKGUvNPKGlUnhxoANxzrP2COsG8hycCrK0VA3RG3ZNF2hcYJFfJZUP+ZIB2m5CXikLb9IIBzS3tD2iVUXctErna90Ah5fBdCrqzf07Mu6RjoLKm5Xly9sTilblOWS9abtqssA+6Jspv0QTsaLKj9RCXjkrU2Mj0B58JUFQh7TdErmcQ1l9OqlN+ukqfE1hYXG4BazrGGo7U6GdLDqL75kyLrRx1Hwo9PiPj4vbdqCtiADZIAMkIG8CHjpR76/tzpFfFw82265BaBnEccAFf7SX17aYm0muKZQ0WLQby9XetXpoWfXTWCb6SAM/PJ1PLk/dWK1glA248jfaGTIude9BDxmhpEuMjINHJeX/UHVL33Ovlc6AW/GN39DDB7eX5fzcsn6gog1G0dmvvAbIlbGi6qeoxTwKAsWyHLLvzwHu31+bJWjPLJsVjoBpiKtKL/JcjGTceVxFPzI9HjMPwwyQAbIABkgA/FgIC8CfvPGKbbIgZDNFobGhpft9KRQ8jv2EqrwNcdAQogsMz7O4ZqbP7osw8njzZbglO4SSAtuKsuXvWL1/steVtSHjC+PMbgUA1XNtLCwFaYPlI2hTAU88rNwwd1qWf2LalN7gWPgqsyDPo6yXDpN7NE4QyMGDSO4VZn1jt/4CiPj4DiK/EgB77bQlb6n/DrjZy/0hm/ZPENVVtySUo55c69TcE/C2AWdrtfeSmfTdIXVc836QB21rB2l4LbjFV+fz5YfnQ738Xhh0w60AxkgA2SADICBvAh4uM1on2vsjwQcvNjX0J4/s14d2FtjbTjO9P7opYcvMgY4ooyXznVknIa+J6Z1PLB3idq3Z5GCKNPn87GPslxR5D9u+dFlgj8/bLa3Z5E6/flax5gKHSbI/sKZDTaH+PJg+tYHSSNO/ATJL8PwD4oMkAEyQAbIgDcDeRHwMIjsOa6suE3t7VmYV1FKSLwhYd2wbsgAGSADZIAMkAEyEB8G8ibgMVBSzvt+ZbDq6wruCRDz6LHGJmeCITjxAYe2oC3IABkgA2SADJABMpAfBvIm4GFw+DC7zaYifX7lgkKEJD+QsN5Z72SADJABMkAGyAAZiA8DeRXwAOGbL7ZZAxjlAkkU8PEBhA8rbUEGyAAZIANkgAyQgXgxkHcBr4GAq8zxI02qd/cC1b2lSHV1Flqb1xzXOh738QKK9qA9yAAZIANkgAyQATKQWwZiI+Bp6NwamvXL+iUDZIAMkAEyQAbIQP9ggAL+b/3DkHwgaUcyQAbIABkgA2SADAwMBijgKeA5fScZIANkgAyQATJABshAghiggE+QsdiqHhitatqZdiYDZIAMkAEyQAb8GKCAp4Bni5sMkAEyQAbIABkgA2QgQQxQwCfIWH4tMV5jS50MkAEyQAbIABkgAwODAQp4Cni2uMkAGSADZIAMkAEyQAYSxAAFfIKMxVb1wGhV0860MxkgA2SADJABMuDHAAU8BTxb3GSADJABMkAGyAAZIAMJYoACPkHG8muJ8Rpb6mSADJABMkAGyAAZGBgMUMBTwLPFTQbIABkgA2SADJABMpAgBijgE2QstqoHRquadqadyQAZIANkgAyQAT8GKOAp4NniJgNkgAyQATJABsgAGUgQAxTwCTKWX0uM19hSJwNkgAyQATJABsjAwGCAAp4Cni1uMkAGyAAZIANkgAyQgQQxQAGfIGOxVT0wWtW0M+1MBsgAGSADZIAM+DFAAU8BzxY3GSADZIAMkAEyEDMGTn2+WdXWz1FzK6Z42mZe5VS1tGGOOnOq0zOMnwjM5NrZM51q2/Zlqn1TlerpWZnz+2WSt4EYlgI+Zg/sQISQZWYvAxkgA2SADJCBKwxAjH82a6z6xX23qJ/96XdqxKjXPMUyriHMrx+8XU0tGqPOnt7iGTZs/TatLlWPDb9P/fzRa+xtQuFbkd8nbP4GajwK+IQJ+GOfd6nWrc1q/5FNfHgSZruB+pJhuSnMyAAZIAPBGGhtq1J3Pf2gJcohzIMKeB323uceVm3rqyPTB5+VfmiLdgr4YDbsK9Yp4H8SgXsOblSbdq61t3PndmT0AJw9t92OK9ORx1t7WjNK04SgclWNumviZHX7hEnWVri0Mqv0zPT74vf501vUxvXVrlvHhhp18lhH4soUVb3t2bVKta5dGGpD3KjyEdd0wIcXOzj/43f7+n0dxNU2AylffE79RQyfU//68XtWWtoW273uWpC/+eGrav0Gb0GOawijw2OPnnuk5XevINc6u2od4v2fn/iFGj5usJpdMU6tbinLOv0geWAYb54o4H8S8EOLCm1hDIHcuWtdRnBu3rnOEV+LbLl/dsb0jNKU4H73zV716JSpjntAzB8/2RU6TZl+Xx0vqZqprr32Ws/tl7/8F/XsM4+oKZPfV7u3r0hU2WQdrllVoZY3lFrbhTPBbDR71jjPejUOwrgAACAASURBVPGrM1xDXHn//nh8ww3X+9bPl5cya3Tnoo7C2D0X+WCa3n96sm7C2IvPqX/d8jn1rx/JnzzesqXBcoPRQvzhFx9T27ctD/xeR1jE0fHhUtPV1RA4vsyLPi5Z8Ikt4G8e8p/q5ImNWaWn0+U+HCNmvVHA/yTgX5g5wyGO4ybgYbhXimc68vhQwRR15uy2RD1QNYtn+IowKVTvvusWtX1rY6LKpx+wQY/ca5dzR3ewlzCFgf9LLQnCIIzdNTPc+9s/F/UTxl58Tv3txOfUv37cOP7hm141eNhgW3w/9MIgdfBA5l/sD+xvUYirRTzSRNpu9wxybuLMt20BP3XOB6HTCXIvhsmcGwr4BAn4tq3NanjJLEvEQ8wvb0+euJUC/qknH1JzSyba26yZY9X7I19W119/nS1+/3T7TWpb17LEvTjCCAO4zxQXjUvZnn7qL3Z9vPbKMynXEQdx+/sLsKhwjCqc/rG9TZ/6kV0vaPjFoQc+jN37u93iXL4w9uJz6i80+Jz614/b81CztNgW3XB/2bd3bej3OeLqwa8Q8kjb7Z5Bzk0uHmkL+LKqSaHTCXIvhsmcGwr4iAT8oWObFXzU5Va4dIGjxzwbFxoJ9w8J9vWVAn7C+LddXwhdm+sUet91bzxEvSx/Eo7DCAOvcskePxx7hRto5yHYNSMU8Jm//AcaL27l5XOae274nKav4+dHDLEF/KQZo7J+xyMN3QuPtN3YD3KuqGyMLeBnlY0JnU6QezFMek7MOoqlgD9/Yac6emKLgt+3meFc/fZzoQmbn2172nIi4KOog89PbVWHj3eqH7/f32d1jHwHEfAIV19bbIuz6677VxXUj/zYofUKWzZ1dOlct9rb06wwWO3U8XCDauMqDLKtny8ubFfHD29Iqd/TJzapC2e3ppxPZwcMPEV6YQYv50IYoByfHw3v5xml3VF32dorXf2HuY5n4uihtqw+zUdRLj6n3n/4fE696wbMx+k5hduLFtvX3H2T6t2zJuP3qPkcIw2kpdPFPcwwQX7PX/ypLeALZr8XKo0g92EYf1696idvAn7cgrnqpaJCa3t5VqE1GLN5U5PCsR74+cDkAvXu3Nm+A0pHzpttp4P0DrhMr4hz+l7YI45ZIaaA797Tqtzyg7hB/eOzEfC79m9w5FnmXx9Prw0+Cw2EelN7o1Wfg6ZeHQx7/6QC9VrxTFW+olqhoWLWS9S/gwr4M59vtgU8elf9BrS2rVukhr0xWMHdRvfI4hjncC1IGQ7vb1FTCz5Q9937JzsNmdbET95Re3tWu6aFMv31iQcdm3QDevCBuxzXdNixo4e5pmfmN9se+LD1s2t7k51vlBEuK7fe+geFgcZvvP6c6t3drPC15NWXn7bqDA0tlMlNyDevmG+nBVepIwda1aSJI9Xvf/9bu74fuP8O6xxsb9aB2++oBDwGMg5/c4iDH5TzpaF/tRqSXj6kubJ7WHu51VE250Z9+LplM7i6QXCjvH956G7bXrAd6mjd6mDvoSjKxec09Y+ez2myn9O6ZSW20IbPejbPrIwrfepxD3kt6HFV/XRbwI+Z9maoNILei+FSn+10dZI3AW8K5rIV1bZw1wJe7zHbSl2b+2jqx6dOc8SD8DULjXM6LewRxwxj5qekcbEjjox/z6eTVYNHfmS62Qh4M668vz7+uKI0pRzy/vr48LFOq9Gi43ntn/rsM7Vxe/atf31ftz1EgBbGXi40iPfdVz12OITf2lmfUlb03n464V1HOJ223COM3xSD6Gn/482/S5vOTf91o+ruTOVQCmx533TH8Gd3qyPznEw/ExeabOsHYw90GTAzkD7We7g2QcDp33oPP3WzDNLuH7z3iiUMdXhzj96xg3vTzwKVrYBHL+XId19Kyb+Zn6EvPKHOnUpdHEXaxYzj99vL7tnay6zzbH9DuOtyTJvygX2sz8m9m831/aMqF59T9/cYn9Mrs5ol9TnFSqq6p3zUxHdS3p36Ocp0j7R0uvMrp4ZKd9nKObaAf2fCi6HSyDTfDB9cyMdGwHuJSn0evfFHjqcuFZwrAa/v67VHfuDm4webKcIz8YE347rlI4iAh7/8+/PneDZGzHSfmDbNtZ79ypnJNSnk/AQ8Zm6RAsHNlUWmhbAQk3qQoyksEdYrnxBU8l533vFHNXrUmwq97nIAKcKgBxKNC5kWBuKiN1JuMr0bb/x3xzUdbsSw5x3pyDTlsRSKmQj4bOtHCgOUZ/zYEWpO8XhHTzW+dJQUf2L1vOsyo3xmHZl5QViMc0A9I93HBt3nsAHOyTpwO85WwJuNP3w1AQsfvv+qwlcTXR5ddjMPUdvdrKOwPJv5DPtbCnhdF/hSMeOzUZbN5BcvXN/Q6j7vdFTl4nN6rfUVxLQnn9Or0xK7vTfi/pxi9VQttGeWTEj73jPt7/Ubael0cQ+vcH7naxoKbQH/4eRXQ6Xhlz6vBRfrbnUVKwH/5GfTVHH9QlXauDhlykQIzVn1qTNt5FLAQ8xiIGpxw0LLncUUuzjvVqn6nCnCMxHwcPsZUjhdIY7e0GiQeQgi4Ota6x1xEB/pFdUtUJOqytTDBVNSruO8LkPUe/ln7ifgIaK0aHjk4XtS8gNBL3vN8ZKWvew4xjmdBsK6NQKwsBRcQnS4irKCFN/e9rYqBfcQHWZ9i7tQkXUVpY9lGAEfRf1IYQBBq8sn8wPxrs/DBUbXkdmDLu2OMG8Nf8Hhaw4xjrn/dXzYBD2uOm23fTYCHq4Y0s2pfN5kh+sP0p5VOMbOD/Ll5UIl8xbW7lHYS+YjimNTwDc1znXY49D+FmvNBm0zuFKZ942qXHxOr4hUt/cYn9NkP6efTP3AFtqLqmemPEPmMxX0N9LSAh73CBpPhhs/Y4Qt4GfMHRUqDZkej7MT7Gb9xUbAQ6yePN1tA/LVlz3qzTlFDnH5ztzU6ZByJeCxaBIGeuoKu3x5t3pjtjM/8M/X19322Qh4t/R27F3vqI8gAn78wnmOOG+XFjt83VHPGI8gGwZwpXG7fxTnpJBDbwn+mPV24ki7glh+e8SLDuFUvSi19xy9fVo4wL3DzU8Z56Trh1sPYdfmejsdCDo3VwmUG/67DXWzrQ3+2+nqIqyQc0tXCuagPfBR1I8UBmM+vur/2LJmgV1ncvpK9KZrmyCuLIu0O75IHNyX6iJz+fw2R883/OZlGuZxNgIeK7fqsQhw6THTxm+Tn3T5QZywdo/CXm5lyOacFPBejW00ZrXNYVfzOYyqXHxOr7qwme8xPqfO93zSnlOHgK+JUMDXBBfw23YsU42rSn7a5qiyxZPUB5NfscU7VmDduSvYeibZvHMYNzOBHxsBX9tSl/InunhNrUNYokfcNHCuBPzUmoqUey1anT4/Mn9xEPAQ41Kcr+9OHYi5tafVEQbhDx4NNpBQljfIsRRy+o/fb4+eWvgqm2lXLZpuCwf455rX9W/pu4s4+rzeY7YZef+giy7p+F77sELOLb0wAj6K+pHC4JNxb9l1195aZdcZjnWeEUbXpZ+Ad+up1WmgUafTwNcQfd5tn42Ad0vP7RzcqILmB/HD2j0Ke7nlP5tzUsBjVWG3tOAqJb9k7DNm0IiqXHxOr45BMN9jfE4PWe6OSX1O4yDgJxS+ZYv1nz96jeP4lhd+r1rb/b0N3N4NPJeZGA9TX7ER8O0ugyf3HNyYIizNqSVzJeBbtqR+vg+SH2mEfAt41JUU7zjGgFaZR32850C72i02fHHQ16LcBxXwcFmZOP5thani3O6PxYvsF/Z8b6FXMb/ADoc4ZlroMcTgVJ0WfNzhFoLBqugRNsMH/R1WyLmlH0bAR1E/uRIG48YM96xXmW83e8n6iVrAw+0KPMhNLhYFNxt5f7fjsHaX5QazbmnjXDqeveKFOS8FfGfHUs88yTKbDbeoysXn1Ps9xue015ohS7/Dk/acxl3AP/j6naqtPdhsbmHeM4wTXujHRsC7Tc0IFxZTgPaVgA+bHwljHAW8dAuSee2rYyngIZzhvoANPe36BYz92ubULyAyj1IYIDx6Ad026bvuJQgXlE913FvnA3GfePwBBcG5cvm8jAS9FDXZ9upnK+DD1k+uhIGXOwbsi8aTrn8ve2kOshXwEOwNS2db7MHHX46F0HmQ+74SBmHtpeslqr0U8HBh8Up3y6Y6BZckbF9f3uUIx+fU/885ivrhc3p1ECuenaQ9p3EQ8O2bqtSSZYXWhoGrxeVj1fBxg+2e+H998peqt7fZ8Wx7vQ943v+Zj7J+KOAzWIk1SINCGocCPhVkKeClkIOYkjO+wHVB1qV5bP7xSaHldewlCOEGUDZvkrrhhutt8eiWBsS8n5CReYybgHcrj3nOrJ/+LAzwdQVz2Zt14Pe7L4WBXz70NdNekr8ojoMKeL978TlNfQfK+oqifvic5k/A62fRb5/uOXUI+BgNYv3x+31q1JTXbRFfOC91emDJMo/9n/Vc1A8FPAW8r1COGjovAY/7LK0psgUVetMP9K71zJv840Pv/ZKqmWk3/NH5lQercDbWz1GTPx2pXn/tWcd0ifoFjRlxMOjWLx1ci5OAD1s//VkYTJ82ymYNtoVYLZ0zIYUhTJuobd9XAj6svdIxmen1qAV8VOXic+p8j/E5nWktxJbU53R68Th7tpii0uimkURaehYa3CPT5x/h5TSSHxW8FiqNMPdlnGCNgdgI+I4dqWINUymmc6HBwFYZxs31BedkGPjNm4CYCzltcBnsGSQ/Mt049sC7zaWPPH/7da9jk+WI8thPwGOwqlwJ1W9wqhTw6QY7hs0/vgqsb1mksCKl/nPAvq42dTYk8x5xEvBh6ydXwkAOiDXrDfPM67pO13MV1oUG/tRYaVXfB8LdzIf+nRcf+DSDd3Xecr2PWsCH5TBdOfmcXl1wTT5b2Q42l2mZNuBzeq2KiueqJUW20P74U/8vz6Yd/H4jLS3gcQ+/sF7XuJBTMCHtVX+5Ph8bAb9svbNXAQVfasxhjqkdzQoZXjLLIc7nLb86K4YOi3NSwGM6SH1N700Bj/no9TW9N/PzcMGUlDA6LPbmtI8PFUxRX37hXARIhk93bKYXZBrJZ6Y7Z6HZ5NJQ6j24UWG1W11HOEZjJV1+wlz3E/BIb/7cSbawwrR0Rw+1ueZjYcVVv3X0pobJSyZx5HSURYXpF8XIt4CPon5yJeDhuuJV9xi4rIU1WPAKh/NhBTyWntf3wDgHzGfudZ9JE0faYXPZAx+FvbzKEPZ8FAK+r8vF5zS62aL4nKaKt1zw3NpWZQvt50cM8XwXZfocIy0t4HGPTOMjfHXDDNuFZvS0q1MJh0mLcVJ5yrZOYiPgIaq//mqPA7IPypwriEKsmwWeUlNuC08I0JeKCpUc6IpjnNPiFHvEMdMxBTyEb5j8yHTPntvuuC/ujUaADJPJcRgBP7qi1JGHMZVzFVZnlfedXlvpCIOGBuaHl2GiOk4n4D8/utFatVQLrFkzx7rmQ85F7jctIe4HwY1NTnmoy4OBd7U1RdbW2VHrei+EldMbQtTp+F57ubIo7uEVLsj5MINYo6ifXAl4t8VoUA/oGZei0Vw4yKwrhJdTGG7tDPZsyXIhL2a68rcUhEEEfFi7R2Evme8ojqUtgo79MO8bVbn4nHq/xyTPstc82x54PqepgisqnuVzsm/vWltoX3P3TWpv7xrfd5KM63WMNJCWFvC4h1dYv/OYD15PKzm5OP3/nl9avJbKU7Z1EhsBD3GLhZsgcBs3LFMQmlJ043jaktSZSRraGlLCjSgtVkvW1Vkbjs10EMesOFPAI86wObMUVjL1yo/bXPFmuligyrz/0KJC9VF5iWPDgksy7qjyEjVy3mzHZi5sNWjqVMd1hDfraNHqJSn3x2JONevqVPnK6pTFspDXsZXOFRdlvrI9Tifgkb6cu93rT+TIwTaHeMNsImbe5MsWDQK3mW3kDDRYGt6tNxb3+v3vf2v3xKIXxryX+Rv+vroRAp96t7nszThev8MI+CjqJ1fCAPWCAczmjCX4JK3rDPvtWxvT1vNzzz5qxxk7epg6eawjbRxMTSpnJ/Ka41zOiIP8BBHwYe0ehb28+Al7PgoBH1W5+JxeHahpvsf4nF6duSqJzyk6Ih4d+rgttifNyP6LMtLQ4h1p4x5h3gOzysbYAr6oLP2X5zD3YJzwwj5WAt4UuvL3PZ9OVpiH3TQ2etjdRLqMK48RVvbQ6/TcBLyMZx7DzaTnQHtKfnR6eg/XIDOu2++HDXcc9IK7hUt3Dl8b9L2xh8vO68YKsn5p3DupQMF3X6YR5XEQAd+7u9khsOaVTHTNjymwsBLoospplhvO+yNfdszvjlU33V5iWCBGijn4RmNaS7hv4L4YxCh7eTHVYJBpIc28Id0Xnn/csQXxpUfdhxHwiGfmIdP6yaUwwB/tkOcGKfjSop6l8MU1rMYbhDuzjJhJ6PkhjznqGfWOcDI9OTgV9sX9sOLv2tWV1teYl4b+1W4YID9BhYGZn0zsbsbN1F6yfFEcRyHgkY8oysXn9AqDbu8xPqdXGzdJfU4bV8y3Bfcv7rslq1743j1rFNLQAh5ph30foNdd98CjNz5sOowXXqT71V1sBPzkqjJfwTqvyduHCwsQPTcjtafbFKroDceCRW4VYgp49GSb8eXv0sbFrum4pW26+ch09HGuBDzys3PfhkD1A/He1J6+19OtjEHPBRHwSEsOHL3zjj+6zvyCXu0gUwH++Z7b1K5tTZ72knnSYs1rbwpBr3JjphrpTuGWXpAeXaQfVsBnWz+5EgZoXD1w/x0pAlnXEb66BOl9R92gjENfeMIzLZ0mxLC0FVYMxX30dbc9xjFMmfy+HSaIvbKxe7b2kuWL4jgqAR9Vuficur/H+Jwm/znFlI1Pv/6MLbrvH/yICuP2gjiIq8U70kTaYd8HBbPfswX8p0XRDbANmx/GczYEYiPgu/e0qspVNcrsecaMMSs2Lk8L4IULO1VJ42IFtxItivUe5zCQ9eJF5yIjEgZTwO891OGZnzAiFyu7wi0IjYg7Jk5KySNm05H5MVeY1WVJt3+leKYjHZ0m6geNILd0IdwnVZWp/TkauKrzgL38Ey6Y9J5rXhFuU/sSWzhBXGGKSZmOPkavOnpO5ew1WoxhoaiZM0arIwdaXePqNLBfs6rc6rXVcc09er5WNM5VmPFCxvM7xnR3hdM/VvCjdptjfmGl0+ZeaaGHWuendLazJ9krjj6fTf3IwZ7StxZjBXR+5LgChNHnEVfnAXtpd8zxj68Yw94YbIdHPHzdwPSde3tWO+LKdNyOMZgV8/ij11yuqqvzgj3ca8y4uA+EvbmAE77IoAHZs3Olo/c4qL2ysXs29jLLl+1vKeCDfHXyu19U5eJz6vwDR53zOe0fz2lL62KH3zqEeIfPCsjm84awUrzDB35dS3YrqJZXT7YF/M1D/lOdP9uV8h4188Hfqc9oruokNgJeT/94/sJOtb23TWEax4NHN4eC5fjJLrV55zprw3E2lRdFfrK5fy7iYkEq1Dc21LE5qDUX9+yLNE8caVcdG2os8Y8e1m++2J2x7ZEGVpbE9JFwp8DgPQys7Yv85/oeUdRP2DxKAS8X8Dq4b501uBh2O3uyMy/1fOHsVqvHH2Mmujsb1Knj6f3ow9ZDJvHyaa9M8plp2CjKxec0NyKBz2nm9RoFz/oZal5TqX51/612Dzp60jGbDM7rMOYe1+SMM4jzD3++WTWtLPOMY6bh9bujs0b970H/xxbx//Hsb9SHk19VFdUFqrPLe9IHr/R4PnO+/OosdgLeL7O8Fq3xWZ+sz75iwEsY9NX9eR+yTgbSM8DnNH0d5ZqjjR216g+D7nGI+BGjvBdRwjXtMoP9rx+8Xa1dlzoNdth8Tyv50Bbw2h8e+wmFV6csDZs242XHGwX8TyuxEqTsQGL9sf78GKAwIB9+fPBaPPjgcxoPO2AayM9mjbWFfBABf9uT96s58yero4fXZ93zLp/H777uUbWNReqel291CHkK+PyzQgFPAR/pwy4ffB7n/wGPiw0oDMhCXFhkPrxZ5HPqXTf54ObCuW5VWz9Hza3wXjQS1+obS9UXF3fk9L8cg2EPH25VGzdXqzWt5WrbjtTFN/NRRwP5nhTwFPA5fegH8sPFsl/9M6QwuFoX5IJ1EVcG+JySzbiyyXylspk3Ab9qU5PCgkp6y3awKY2balzWCeskLgxgpoza6pnW1h5yWe+4lIX54HPVXxngc0q2+yvb/bFceRPw/bEyWSa+/MgAGSADZIAMkAEyQAZyzQAFPF1o6EJDBsgAGSADZIAMkAEykCAGKOATZKxct+aYPnsMyAAZIANkgAyQATIQfwYo4Cng2eImA2SADJABMkAGyAAZSBADFPAJMhZbxPFvEdNGtBEZIANkgAyQATKQawYo4Cng2eImA2SADJABMkAGyAAZSBADFPAJMlauW3NMnz0GZIAMkAEyQAbIABmIPwMU8BTwbHGTATJABsgAGSADZIAMJIiBnAn4nQdWKGxsxcW/FUcb0UZkgAyQATJABsgAGUgOAxTwCWpt8cFKzoNFW9FWZIAMkAEyQAbIQK4YoICngOdXEjJABsgAGSADZIAMkIEEMUABnyBj5aoVx3TZQ0AGyAAZIANkgAyQgeQwQAFPAc8WNxkgA2SADJABMkAGyECCGKCAT5Cx2DJOTsuYtqKtyAAZIANkgAyQgVwxQAFPAc8WNxkgA2SADJABMkAGyECCGKCAT5CxctWKY7rsISADZIAMkAEyQAbIQHIYoICngGeLmwyQATJABshAYAZOfb5Z1dbPUXMrpnjGmVc5VS1tmKPOnOr0DEOxmByxSFvFz1YU8Hxp8+VKBsgAGSADZCAtAxDjn80aq35x3y3qZ3/6nRox6jXPOLiGML9+8HY1tWiMOnt6i2dYisP4iUPaJP42oYDnS5svVTJABsgAGSADvgy0tlWpu55+0BLlEOZBBbwOe+9zD6u29dW+96BojL9opI3iYyMKeL60+UIlA4lh4PzpLWrj+mrXrWNDjTp5rCMxZYn6j3DPrlWqde3CUBviRp2fuKUHPrzYwfkfv9vX7+sgrE1a2hbbve5akL/54atq/QZvQY5rCKPDY4+ee6QVNh+MFx/xSFvk3xYU8BRvGb9M9x3uUKs6muxta09rxmnw4c//w59EGyypmqmuvfZaz+2Xv/wX9ewzj6gpk99Xu7evSCyXa1ZVqOUNpdZ24UxXoHLMnjXOs1786gzXEDeJPGSS5xtuuN63fr68tCPvdRDG7pnUQZiwW7Y0WG4wWog//OJjavu25YHrCmERR8eHS01XV0Pg+GHyzDj8fxkIDFDAU8Bn/CKta61Xt0+YZG9jKudmnMZAeLhYxuj/RGoWz/AVYVKo3n3XLWr71sZEsjnokXvtcu7oDiaWKOD9eUuCgA9j91y+Z374plcNHjbYFt8PvTBIHTyQeYfNgf0tCnG1iEeaSDuXeWfa/s8D6yf59UMBTwGf8UuUAj75D35SX95SwD/15ENqbslEe5s1c6x6f+TL6vrrr7PF759uv0lt61qWMeP5rp8wQg7uM8VF41K2p5/6i10fr73yTMp1xEHcfJc51/cvKhyjCqd/bG/Tp35k1wsafnHogQ9j91zWW83SYlt0w/1l3961oTlBXD34FUIeaecy70yb/1P9nQEKeAr4jF+iFPB8MebrxSgF/ITxb7uy27W5TqH3XffGQ9TnK79h7xulkJM98wPBVSZonUOwa0Yo4N3fac+PGGIL+EkzRmX9HCEN3QuPtIPaiuHc7cN6Gdj1QgGfQAH/w3f71ImTW9WpM92hXoDfft2rDh/vVIePdaqvv9qTcRpxF/DZ1o9+KZ4/v0MdPbFFfffN3ozrSKcR5T7b/GRr9yjLEjatIAIeadfXFtvi7Lrr/lUF9SM/dmi9whY2f4h36Vy32tvTrDAw9NTxcINq4yrgs62fLy5sV8cPb0ip39MnNqkLZ7emnE9nBww8RXphBi/nQsCjHJ8f3ZhxOXQ5o7Q70szGXnB70WL7mrtvUr171oQuly4f0kBaOl3cQ1/LZH/0UJvClkkchh3YYrc/2p8CPqYCvn3bavVSUaG9Va9dqg4e3awKqsvVvZMKbP/zpz77TE2qKlNHjvsvlgFRu7S1Xo0oLVZ3TZxsx79j4iT15pwiVbOuzlOojq4otfOBPD352TQ7PnzhkZ7Mqz5+rXim+urLHsdLduS82Y6wB45sclzHQ4ZzOg3sEcd8+KKqn3EL5tr3enlWoTp+sssanIv7aj//ByYXqHfnzladu9al5MPMV7a/o85PWLsvWVdn18uwObMc5S6uX2hfK1y6wHFtbOXV+kQa2daHGT+ogD/z+WZbwKN31W9Aa9u6RWrYG4MV3G10jyyOcQ7XzDy4/T68v0VNLfhA3Xfvn+w0ZFoTP3lH7e1Z7ZoWyvTXJx50bNIN6MEH7nJc02HHjh7mmp6Zv2x74MPWz67tTXa+UUa4rNx66x8UBhq/8fpzqnd3s8LXkldfftqqMzS0UCY3Id+8Yr6dFlyljhxoVZMmjlS///1v7fp+4P47rHOwvVkHbr+jEvAYeDr8zSEOflDOl4b+1WpIevl658ruYe1l1lHdshJbaMNn3bwe9rf0qcc9MkkHDZK3hr9gMQSOcJxtgzuT+zMsGwFxYoACPqYCHrO8aAGJ/YzaSjVUiEp5DceDpk5Vm3a6+yei5xXC34xj/kZDwK1H/rkZ09PGNdPSvy9c2Ol4QT8+1Sn+d+1P7Y3DOR0fe8QxH5qo6ueFmTMc9ypbUe34LfOBhkp9W25nT4gyP9nYHY09WfaTp69+7XljdpF9DQ0dbZsfv9+v0NjR8fClRl+Lah9UwH/3VY8t7CCkt3am5gW9t59OeNcRTotuuUcYvykG0dP+x5t/lzadm/7rRtXdmcqPFNjyvumO4c8epF5l+pm40GRbfhASBQAAGYBJREFUPxh7oMuAmYH0sd7DtQkiV//We/ipm+WSdv/gvVcsMa/Dm3v0Yh/cm76xna2Ax9eEke++lJJ/Mz9DX3hCnTuVuoiRtIsZx++3l92ztZdZ51hJVfeUj5r4TopNzPBBfyMtne78yqkZpTt/7qSU+sa5oPdmOArw/sQABXxCBLwWRX57iCmzx/vLL3rU+IXzbFHlFx/XEBZxJORJEPDpyoXrbvVjCuZ06TxUMMVyq5H1E+VxVPnJ1u7t29c4mOnec2XmCfTo3y++AN3z6WSFhgLqAF+BZP1t3J79J3ezbqWQ8/KBRxzM3CJFkJsri0wLYSEm9SBHU1girJkX/RuCSt7rzjv+qEaPelOh110OIEWYvzx0t0LjQsfFHgNx0ZMsN5nejTf+u+OaDjdi2POOdGSa8lgKxUwEfLb1IwU8yjN+7Ag1p3i8o6caXzpKij+xet51mVE+s47MvCAsxjmgnpHuY4Puc9gA52QduB1nK+DNxh++moCFD99/VeGriS6PLruZh6jtbtZRWJ51PrF6qhbaM0smpK1PHS/dHmnpdHGPdOHldXyhkfWK46BfomQ6PKaQ7w8MUMAnTMCjJ722pU6VNC5WDxdMcQgmiKcGo4cYPcZSVKEXubRxsera3aIwfzt6nCHCZBizl/nt0mL17Izp9ibD4hiCTl6Xxxcv7nK8oHPVA6/zlGn9uAlm5H/OskVWHbtdL1kWzK0izAvC7X5h8pOt3TE+Qtcp9vjigfLAvUmex/HeQ1d8fjftWOu4hvEDYerAL44UKX4CHiJK/9E/8vA9KfmAoJe95hBTspcdxzin00BYt0YAFpbCp3wdrqKsIGV6vPa2KgX3EB1mfUv6hWyi9IUOI+CjqB8p4CFotV1lfiDe9Xm4wOg6MnvQpd0RBq4T0tccYhxz/+v4sEm6xamyEfBwmZJuTuXzJjtcf5D2rMIxdn6QLy8XKl1+7MPaPQp7yXzg+JOpH9hCe1H1TNtOZrhMfyMtLeBxj0zir15Z7qhT1CvOZZIGw1K89xcGKOATJOBrW5xuAHsOtDv84SGmZtY5fZLhPy4FV8XKmpSX3aLVSxxh3HzOJfDZDGLNpYAPUz+mYEb+zp7bbtcRGiDPFzrdbEaVZ+a3Kesu3XFU+cnW7qY7zILmJVadrO9udrACtlq6rqziuWz9MvsaGpfpyhrmuhRy6GWFgNbbiSPtCmL57REvOv7kqxel9p5vaF1sh4F7h5ufMs5J1w/EMfPctbneTgeCzs1VAnHgl9xQN9va4L9tpmP+DivkzHTwWwrmoD3wUdSPFPBjPn7TLnPLmgV2ncnpK9GbrgU44sqySLvji8TBfakuMpfPb3P0fMNvXqZhHmcj4LFyqx6LAJceM238NvlJlx/ECWv3KOxllsEh4GsiFPA14QU86hRjDvDsY8Ox27NrloW/Kdr7IwMU8AkR8BCWcF8wIZxi+LZ/ZIjLJ6Y5fc6PfZ66qiNmtJEiH3HM+8jfcRTwYevHFMzTaytTyj5veZWjfiDoZX1EeRxVfqKwOwY3ay6mLamwyozBzjgHdyRsOK5au9S6Nnf5Yjs8BktHWS86LSnktNjz26OnFr7KOr7eVy2abovFaVO8ewFxTaePODq+3mO2GX0d+6CLLun4XvuwQs4tvTACPor6kQL+k3Fv2XXX3lpl1xmOdZ4RRteln4DHoFcdx9xD1Ok08DXEvC5/ZyPgZTp+x3CjCpofpBPW7lHYyyxHHAW8mUf+pjAfyAxQwCdEwL8z110QoWdUiyzsMcBQAw3BL6/BVeb8hZ3q3Lkd6szZbdY0lJ+f2mrNvCL9mhHHrbGg042jgA9TPyiPKZhbtlzpTdZlxX7L7hZHPaKxIK9HeRxFfqKyOwY1a37emz/HKjNmncE5rL6LDceFS680eiYsmm+Hn1KTm8/aQQU8XFYmjn/bmtLRzT5YvMgWVvO9hV7F/AI7HOKYaaH3D4NTdVrwcYdbCAarokfYDB/0d1gh55Z+GAEfRf3kSsCPGzPcs15lvt3sJesnagEPtyvwIDe5WBTcbOT93Y7D2l2WG8y6pY1z6XiW8SjgKY4lDzyOHw8U8AkR8B+WubttbNi2WqHXWG/SRQbzl2sBluneb+7zOAr4MPWDF5IpmN2migwyK05UL7co8hOV3ctXXp2R55npn1mi4IOyORZTsxsWqeKGhdbx+z+Jezk7zcKfXG6iqhedjhTwEM5wX8CGnnYtorFf23zli4GOZ+6l4EF4uL+4bdJ33UsQLiif6ri3zgfiPvH4AwqCc+XyeRkJ+rBCziwnfmcr4MPWT64EvN/YBzSedP172UvXUbYCHoK9Yelsiz34+MuxEDoPct9XAj6svXS96D0FfPwEm7YN97QNGKCAT7iA93uQoxJy5j2SJODNvJu/oxDMZprZ/I4iP1HZXU7VifUCLl/apbDuABqDYACDqXGMc6bP/NrOlZ69gNnUjxTwUshBTMkZX+C64HcfU8BLoeV17CUIMWNK2bxJ6oYbrrfFo1saEPPwmffLl74WNwHvVh7znFk//VnA4+sK5rI368Dvd18KeL986GumvTR7eu8Q8DEZxKrzxj0FLBmggA/0Z5oPUKR4gkjy6mH2y5sp5OBCg1lagmxJc6EJUz+ouygEs58NMr0WRX6isvu23jZLoOuvN9KVCAtpyQGtGFCtw2Hfc6A9J8+Wl4BHPS+tKbIFFXrTD/S6r4uAsFLAo/d+SdXMtJvpl23aFqtwNtbPUZM/Halef+1Zx3SJWjRhRhwMujXjmr/jJODD1k9/FvDTp42yWYNtn3ryIVU6Z0IKQ1jgSdu+rwR8WHuZDE4vHmfPFlNUGt00kkhLz0KDe5j35W+KczIQjAH2wA+gHnjMYR7Fg5FND7w5uNLNZQXnpBh08zmPooGDuohCMEdRpzqNKPJjCviwdj9/fofDDtKlBqsC7zvcYV/HSsHaZpiq1FyPQJcv272fgMdgVbkSqt/gVCng0w12DJtnfBVY37JIjfrwdVvEQczV1bqPZ5H3iZOAD1s/uRLwckCsrDMcY555LZjT9TCHdaGBjztWWtX3gXA386F/58UHPs3gXZ23dPuqJUW20P74U/8vWunSkteRlhbwuIe8xuNgwo31xHoCAxTw/VjAw8BYoVULK+xPnbm6ombYl4Ap4DOZVnF4ySxHfjDDi5kPc9YXOTBXh6WAn2TXo1sDJyq7w/dd86P93zHgGV9osGqvXkNg7E8DWhEWs9NoO0W99xPwuJdcqRHTDR491Oaal4UVV/3W0ZsadT7N9OR0lEWF6RevybeAj6J+ciXg4bpi1q/+jYHLWlinW6EzrIDftb3JvgfGORza3+KZn0kTR9phc9kDH4W9dB3qfWtblS20nx8xxLOMOnzQPdLSAh73CBqP4ShayYCTAQr4fi7gTcG81GV5e8y8AhGutyJjLnnzoWne1GSLOgi2hwumWLPbmOHcfmN2Ei0ItdhDj7EOi2M9PaEO5zajCQW8v4CPyu6YllTbQe9fFzMdDf1pKsl7xeqsWM1X2zPqfToBj8V9sJKnFnGzZo51zYuci9xvWkLcD4Ibm5zyUJcL84HX1hRZW2dHreu9EFZObwhRp+N77eXKoriHV7gg58MMYo2ifnIl4L0W1ULPOFxZtO2bGuf61hvCw9VKh9/aGWx8giwX8uJnA9lwCyLgw9o9CnuZ5di3d60ttK+5+ya1tzf7lZWRBtLSAh73MO+b7jcWaYMrmt6CfNFKlyavO4Uh6yMZ9UEB388F/OI1tQ4BBncKDD7Eipq9BzeqpvbGlF56zC7i9wDv3LfBkSaEHXpiMZUjBJ/eKlelLhqFlWK1ENR7zBm+ZF2dteFYn9d7c3VZ5I0C3l/AR2V3NOa0HfT+k0VXBfroitKU61jp14+fbK6lE/BIW87d7iX2jhxsc4g3zCZi5kuKIog8t5lt5Aw0f7r9JtfeWNxLNirQW2rey/wtZ9WBT73bXPZmHK/fYQR8FPUjha50e8l2HnjYAgOYv77sXOUZrj5ajGO/fWtj2np+7tlH7ThjRw9TJ491pI1z6Vy3Y2Xd5Q2lrnHkjDjITxABH9buUdjL5AcNnEeHPm6L7Ukzsv9ShTS0eEfauId5X7/fGD8iG11BVtz1S4/XkiFUaSd3O1HA93MBj/nezd5YLcTc9hD4ew9t9H2pfvt1rzXfvFt8ec5tYCl62N1EuownjxFW9tDrB5kC3l/AR2V3NKykPXAs3Z5m1V+ZSlKGadyQXjhpO2a6DyLge3c3OwTWvJKJrjybAgsrgS6qnGa54bw/8mXH/O5YddNNbGAhJznVJHyjMa0l3DdwXwxiNAVHkMWezLwh3Reef9yxBe15DCPgYRczD5nWTy4FPATxkOcGWT7vqGcpfHENq/EGYcssI2YSen7IY456Rr0jnExPDk6FfXE/rPi7dnWl9TXmpaF/tRsGyE9QAW/mJxO7m3EztZcsnz5uXDHfFty/uO+WrHrhe/esUUhDC3ikre8TdG82qt95e2jGaQS9F8O5i0bWS3zqhQK+nwt4PGxnz21XI+fNThFiUnThGOJ9887UJcrdHtjuPa2W64yZhvztJuCR1u4D7eq5GdPT5mdI4XSF2U3c7k8B7y/go7L7+u7VKXaSAl2vzCrtjtlq3GwWxbkgAh73kQNH77zjj64zv6BXO8hUgH++5za1a1uTZ5lknrRY89qbQtCrTtDTKN0p3NIL0qOL9MMK+GzrJ1cCHo2rB+6/I0Ug6zrCV5cgve+oG5Rx6AtPeKal04QYlrbat2eNwn30dbc9xjFMmfy+HSaIvbKxe7b2kuXTxz9+v089/foztui+f/AjKozbC+IgrhbvSBNp6/sE3cOVTdb1mlW5WTAuaH4YLj5idiDaggI+IQIeq15mA+iFCzsVeksx4FGKLRw/MLlAFdcvVJhZJJN7HD2xxVpACj7R0gdap+8l4HEP5KekcXGK+w7iYgAmenkvXnR+Ipd5MwV82PoJMuvLnoMbHXWGec9lXqI8jjo/2dodrlbannovZw5q3dqccj2KgdJedSrFcsGk9zztsKl9ieOPHlNMuqWJXnX0nMrZa7RAwEJRM2eMVkcOtLrGlelBSKCnVsc19+jBX9E4V2FmGhnP7xjTUhZO/1jBj9ptjvmFlcFWBEYPtc5P6WxnT7Lf/XEtm/qRgz2lCw3GCuj8yHEFCKPPI67Mm7Q75vjHV4xhbwy2wyMe3CkwfefentWOuDIdt2MMZsU8/ug1l6vq6rxgD/caMy7uA2FvLuCELzJoQPbsXOn4ihHUXtnYPRt7meXTv1taFzv81iHEOzqWptSHDm/uEVaKd/jAr2tZFDi+TE82tuAD7/ZVTIbnMQV2f2aAAj6mAj5X0GF6PwjSjdvXWBsEGlxicnW/IOkeP9ll9fyj9x/HQeIwTGYv5jjaPW42PHGkXXVsqFEQ/+hh/eaL3RmziDS2bKqzpo+EOwUWbsLA2riVNUx+oqifMPdFHCng5QJeB/etswYXw25nT3bmpZ4vnN1q9fjDvaO7s0GdOp7ejz5sPWQSL0p7Na+pVL+6/1a7Bx096ZhNBue98oRrcsYZxPmHP9+smlaWecbxSgvnUa/SXa1ifkGodPzuwWuZ/a+wvvJbXxTwA0zA84HL7wPH+mf9k4HMGfAS8KzLzOsybJ1t7KhVfxh0j0PEjxj1mqeIxjXtMoP9rx+8Xa1d5z9Bgl/eVq8st7+44IsUGih+4Xmt79hgXeenringKeD5EiQDZIAMxJoBCvj8CARTmGEayM9mjbWFfBABf9uT96s58yero4fXZ8WYXBRLfoUx88jf8WCFdsi9HSjg+ced1UuVD2nuH1LWMet4oDNAAR+vZ+DCuW5VWz9Hza3wXt0b1+obS9UXF3dE8h8j59Tfsim4D/5Af3ZY/ng9O1HagwKeAj6Sl2uUUDKt/vvCoW1p2zAMUMAPbG6++6rHmjEKg1jNGYHC8MQ4A5un/mJ/CngKeAp4MkAGyECsGcCsNLXVM62tva0q1nntL+KA5aDIJQPxZoACnn/c/DMkA2SADJABMkAGyAAZSBADFPAJMhZbw/FuDdM+tA8ZIANkgAyQATLQFwxQwFPAs8VNBsgAGSADZIAMkAEykCAGKOATZKy+aNHxHuw5IANkgAyQATJABshAvBmggKeAZ4ubDJABMkAGyAAZIANkIEEMUMAnyFhsDce7NUz70D5kgAyQATJABshAXzBAAU8BzxY3GSADZIAMkAEyQAbIQIIYoIBPkLH6okXHe7DngAyQATJABsgAGSAD8WYgZwKeho+34Wkf2ocMkAEyQAbIABkgA8lkgAKePfD8ZEYGyAAZIANkgAyQATKQIAYo4BNkLLaSk9lKpt1oNzJABsgAGSADZCBKBijgKeDZ4iYDZIAMkAEyQAbIABlIEAMU8AkyVpQtN6bFngAyQAbIABkgA2SADCSTAQp4Cni2uMkAGSADZIAMkAEyQAYSxAAFfIKMxVZyMlvJtBvtRgbIABkgA2SADETJAAU8BTxb3GSADJABMkAGyAAZIAMJYiBvAv7I4VbVvqlKbdu+TJ0900loEgRNlC1IpsUeCTJABsgAGSADZIAMZMZA3gT8xJlvq58/eo29PTb8PtW0upRCnkKeDJABMkAGyAAZIANkgAz4MJA3AT+h8C1bvEshX1Q2hgbzMRhbqJm1UFlfrC8yQAbIABkgA2SgvzGQNwG/uqVMzakcr4aPG6z++Ylf2GL+Hx//R7Vlax1FPEU8GSADZIAMkAEyQAbIABlwYSBvAl62hE6e2Kh+99wNtoivrCmgsVyMJeuMx+xNIANkgAyQATJABsjAwGQgFgIe8H0y46pLzZTZ71PAU8CTATJABsgAGSADZIAMkAEXBmIj4MsWT7J74CcXj6SxXIzFVvbAbGXT7rQ7GSADZIAMkAEyIBmIjYCfVTbGFvAcyEpIJaQ8Jg9kgAyQATJABsgAGbjKQGwEfMHs92wBj954GumqkVgXrAsyQAbIABkgA2SADJABzUBsBPyYaW/aAr6qfjoFPF1oyAAZIANkgAyQATJABsiACwOxEfDvTHjRFvDLVs6hsVyMpVtd3LMFTgbIABkgA2SADJCBgctAbAT8h5NftQV8TUMhBTwFPBkgA2SADJABMkAGyAAZcGEgNgJ+xtxRtoAfP2MEjeViLLa0B25Lm7an7ckAGSADZIAMkAHNQGwE/M5dyxVWYf35o9dY2weTX1EYzNq4ao5qXFVibdt2LKOwp7AnA2SADJABMkAGyAAZGNAMxEbAo0XRvK5M3TH0ZlvEazGv9xMK3xrQxtKtLu7ZAicDZIAMkAEyQAbIwMBlIFYCfvOWWnXPy7dSwLNVzYYaGSADZIAMkAEyQAbIgAcDsRHwvb3N6t+e+r+2eB8+brAqLh+rMKB1ybIrW/umKhrSw5BshQ/cVjhtT9uTATJABsgAGRhYDMRGwBfO+9gW76OmvK5+/H4fxTrFOhkgA2SADJABMkAGyAAZMBiIjYD/qOA1W8BzGsmB1YpkrwHtTQbIABkgA2SADJCB4AzERsBzIafgRiPgrCsyQAbIABkgA2SADAxcBmIj4EdPe9Puga9umMFPJcanEj6kA/chpe1pezJABsgAGSADZEAyEBsBP7l4pC3gMf+7zCSPCS0ZIANkgAyQATJABsgAGbjCQGwEfFHZGFvAzyobQwHPHngyQAbIABkgA2SADJABMuDCQGwEPHrd9YJN6I1nC4utbDJABsgAGSADZIAMkAEykMpAbAT8p0Xv2AKeK66mGorwsk7IABkgA2SADJABMkAGwEAsBPz5s13q5iH/aQv42RXj2APv8rmEDy0fWjJABsgAGSADZIAMkIG8CfiW9QtURXWB+nDyq+o/nv2NLd7hRrNxczUFPAU8GSADZIAMkAEyQAbIABlwYSBvAh5uMtrnXe7hSsOWJVuWZIAMkAEyQAbIABkgA2TAnYHYCPh7Xr5V1TYWqe++7qGAd2lpEWB3gFkvrBcyQAbIABkgA2RgoDGQNwG/bccytaa13HKXOXy4Vf34/T4Kdwp3MkAGyAAZIANkgAyQATKQhoG8CfiB1lJiedk7QAbIABkgA2SADJABMhAFAxTwaVo4UVQy0+DDSgbIABkgA2SADJABMhAVAxTwFPD8TEUGyAAZIANkgAyQATKQIAYo4BNkrKhabUyHPQBkgAyQATJABsgAGUguAxTwFPBscZMBMkAGyAAZIANkgAwkiAEK+AQZiy3l5LaUaTvajgyQATJABsgAGYiKAQp4Cni2uMkAGSADZIAMkAEyQAYSxAAFfIKMFVWrjemwB4AMkAEyQAbIABkgA8llgAKeAp4tbjJABsgAGSADZIAMkIEEMUABnyBjsaWc3JYybUfbkQEyQAbIABkgA1ExQAFPAc8WNxkgA2SADJABMkAGyECCGKCAT5Cxomq1MR32AJABMkAGyAAZIANkILkMUMBTwLPFTQbIABkgA2SADJABMpAgBijgE2QstpST21Km7Wg7MkAGyAAZIANkICoGKOAp4NniJgNkgAyQATJABsgAGUgQAxTwCTJWVK02psMeADJABsgAGSADZIAMJJcBCngKeLa4yQAZIANkgAyQATJABhLEAAV8gozFlnJyW8q0HW1HBsgAGSADZIAMRMUABTwFPFvcZIAMkAEyQAbIABkgAwligAI+QcaKqtXGdNgDQAbIABkgA2SADJCB5DLw/wG7uuo8RMnxXAAAAABJRU5ErkJggg==;" vertex="1" parent="1">
          <mxGeometry x="-290" y="140" width="752" height="256" as="geometry" />
        </mxCell>
        <mxCell id="MbS8dL7SpkD70J1krhoe-3" value="@&lt;span style=&quot;color: rgb(152 , 151 , 26) ; background-color: rgb(249 , 245 , 215) ; font-family: &amp;#34;jetbrains mono&amp;#34; , monospace ; font-size: 11.3pt&quot;&gt;LoadBalanced&lt;/span&gt;&lt;span&gt;用于标记要配置为使用 LoadBalancerClient 的 RestTemplate 或 WebClient bean 的注释。&lt;/span&gt;" style="text;whiteSpace=wrap;html=1;" vertex="1" parent="1">
          <mxGeometry x="-295" y="455" width="649" height="30" as="geometry" />
        </mxCell>
      </root>
    </mxGraphModel>
  </diagram>
</mxfile>
